<svg xmlns="http://www.w3.org/2000/svg" viewBox="0 0 97 138"><defs><style>.cls-1{fill:#eee7e5;}.cls-2{fill:#e1e1e1;opacity:0.15;}.cls-3{fill:none;stroke:#fff;stroke-miterlimit:10;stroke-width:3px;}.cls-4{fill:#9dc5bd;}</style></defs><g id="About"><rect class="cls-1" x="-755" y="-1057" width="1444.05" height="2300"/><rect class="cls-2" x="-755" y="-1057" width="1444.05" height="2300"/></g><g id="Pasos"><rect class="cls-3" x="-9.38" y="41.64" width="101" height="65.54" rx="4.53" transform="translate(115.54 33.3) rotate(90)"/><path class="cls-4" d="M68.18,60.42h-.07a1.77,1.77,0,0,1-1.44-.82,31.52,31.52,0,0,0-5.5-6,1.79,1.79,0,0,1,2.29-2.76,38,38,0,0,1,4.81,4.91A67.38,67.38,0,0,1,82.16,44a1.79,1.79,0,0,1,1.93,3c-9.67,6.22-14.43,12.58-14.47,12.64A1.8,1.8,0,0,1,68.18,60.42Z"/><path class="cls-4" d="M68.18,84.42h-.07a1.77,1.77,0,0,1-1.44-.82,31.52,31.52,0,0,0-5.5-6,1.79,1.79,0,0,1,2.29-2.76,38,38,0,0,1,4.81,4.91A67.38,67.38,0,0,1,82.16,68a1.79,1.79,0,1,1,1.93,3c-9.67,6.22-14.43,12.58-14.47,12.64A1.8,1.8,0,0,1,68.18,84.42Z"/><path class="cls-4" d="M68.18,106.42h-.07a1.77,1.77,0,0,1-1.44-.82,31.52,31.52,0,0,0-5.5-6,1.79,1.79,0,0,1,2.29-2.76,38,38,0,0,1,4.81,4.91A67.38,67.38,0,0,1,82.16,90a1.79,1.79,0,0,1,1.93,3c-9.67,6.22-14.43,12.58-14.47,12.64A1.8,1.8,0,0,1,68.18,106.42Z"/><path class="cls-4" d="M24.4,52.49q15.62.27,31.23-.14c1.93-.05,1.93-3.05,0-3q-15.62.42-31.23.14c-1.93,0-1.93,3,0,3Z"/><path class="cls-4" d="M24.4,76.49q15.62.27,31.23-.14c1.93,0,1.93-3,0-3q-15.62.42-31.23.14c-1.93,0-1.93,3,0,3Z"/><path class="cls-4" d="M24.4,98.49q15.62.27,31.23-.14c1.93,0,1.93-3,0-3q-15.62.42-31.23.14c-1.93,0-1.93,3,0,3Z"/></g></svg>