<svg xmlns="http://www.w3.org/2000/svg" viewBox="0 0 138 132"><defs><style>.cls-1{fill:#eee7e5;}.cls-2{fill:#e1e1e1;opacity:0.15;}.cls-3,.cls-9{fill:none;stroke:#fff;stroke-miterlimit:10;}.cls-3{stroke-width:3px;}.cls-4{fill:#fff;}.cls-5{fill:#9dc5bd;}.cls-6{fill:#c2cb9d;opacity:0.66;}.cls-7{fill:#fbbb8f;opacity:0.45;}.cls-8{fill:#a9cdc6;}.cls-10{fill:#ffe18e;}</style></defs><g id="About"><rect class="cls-1" x="-1111" y="-1064" width="1444.05" height="2300"/><rect class="cls-2" x="-1111" y="-1064" width="1444.05" height="2300"/></g><g id="Pasos"><rect class="cls-3" x="24.47" y="33.33" width="82.47" height="86.7" rx="4.53" transform="translate(142.38 10.98) rotate(90)"/><path class="cls-4" d="M110.38,36.85c1.41-3.62,4.47-6.29,7.12-9,3.39-3.49,6.76-7,10.15-10.5,1.34-1.39-.78-3.51-2.12-2.12-3.53,3.65-7,7.33-10.6,11-2.93,3-5.9,5.92-7.45,9.89-.7,1.79,2.2,2.57,2.9.79Z"/><path class="cls-4" d="M25.22,34.82c-3.53-2.07-5.76-5.6-8.15-8.81C14,21.87,10.88,17.76,7.78,13.64a1.54,1.54,0,0,0-2-.54,1.51,1.51,0,0,0-.54,2.05c3.23,4.3,6.51,8.57,9.69,12.91,2.55,3.47,5,7.12,8.83,9.35a1.5,1.5,0,0,0,1.51-2.59Z"/><rect class="cls-5" x="25.05" y="60.45" width="25.8" height="53" rx="7.15"/><rect class="cls-6" x="45.24" y="60.45" width="25.8" height="53" rx="7.15"/><rect class="cls-7" x="34.03" y="60.45" width="25.8" height="53" rx="7.15"/><rect class="cls-8" x="75.05" y="72.45" width="23" height="41" rx="7.15"/><path class="cls-4" d="M45.28,113.77a76.27,76.27,0,0,0,6.89-10.35c1-1.78,2-3.58,3-5.39s1.88-3.42,2.66-5.21a16.25,16.25,0,0,0,1.45-5.23A27.65,27.65,0,0,0,59,82.21a22.4,22.4,0,0,1-.2-5.3,4.79,4.79,0,0,1,.94-2.5,5.62,5.62,0,0,1,2.51-1.63A8,8,0,0,1,71,75a7,7,0,0,1,1.57,4.51,7.5,7.5,0,0,1-2,4.61c-2.63,3-6.58,4.48-9.42,7.27a27.48,27.48,0,0,0-5.82,9.07c-1.45,3.43-2.51,7-3.74,10.5-.6,1.69-1.29,3.57-2.89,4.57-1.18.74-2.87.83-3.67-.49a1.68,1.68,0,0,1-.1-1.68c.38-.77-.87-1.25-1.25-.49a3.22,3.22,0,0,0,1.17,3.9,4.13,4.13,0,0,0,4.61-.15c1.71-1.07,2.58-3,3.24-4.81S54,108,54.6,106.12a43.57,43.57,0,0,1,4.91-10.75,19.65,19.65,0,0,1,4-4.32c1.8-1.41,3.82-2.5,5.64-3.88,2.93-2.22,5.37-5.53,4.57-9.38a8.62,8.62,0,0,0-7.25-6.71,9.92,9.92,0,0,0-5.25.65,6,6,0,0,0-3.69,4.41c-.77,3.8.71,7.66.35,11.48a16.61,16.61,0,0,1-1.75,5.57c-.92,1.92-1.95,3.78-3,5.65a104.81,104.81,0,0,1-7,11.49c-.65.9-1.33,1.79-2,2.66-.54.67.54,1.45,1.08.78Z"/><rect class="cls-9" x="74.59" y="92.95" width="30.46" height="20.5" rx="3.6"/><path class="cls-10" d="M80.05,100.45a1.5,1.5,0,0,0,0-3,1.5,1.5,0,0,0,0,3Z"/><path class="cls-10" d="M86.77,100.45a1.5,1.5,0,0,0,0-3,1.5,1.5,0,0,0,0,3Z"/><path class="cls-10" d="M93.48,100.45a1.5,1.5,0,0,0,0-3,1.5,1.5,0,0,0,0,3Z"/><path class="cls-10" d="M100.2,100.45a1.5,1.5,0,0,0,0-3,1.5,1.5,0,0,0,0,3Z"/><path class="cls-10" d="M80.05,105.45a1.5,1.5,0,0,0,0-3,1.5,1.5,0,0,0,0,3Z"/><path class="cls-10" d="M86.77,105.45a1.5,1.5,0,0,0,0-3,1.5,1.5,0,0,0,0,3Z"/><path class="cls-10" d="M93.48,105.45a1.5,1.5,0,0,0,0-3,1.5,1.5,0,0,0,0,3Z"/><path class="cls-10" d="M100.2,105.45a1.5,1.5,0,0,0,0-3,1.5,1.5,0,0,0,0,3Z"/><path class="cls-10" d="M80.05,110.45a1.5,1.5,0,0,0,0-3,1.5,1.5,0,0,0,0,3Z"/><path class="cls-10" d="M86.77,110.45a1.5,1.5,0,0,0,0-3,1.5,1.5,0,0,0,0,3Z"/><path class="cls-10" d="M93.48,110.45a1.5,1.5,0,0,0,0-3,1.5,1.5,0,0,0,0,3Z"/><path class="cls-10" d="M100.2,110.45a1.5,1.5,0,0,0,0-3,1.5,1.5,0,0,0,0,3Z"/></g></svg>